<mxfile host="65bd71144e" modified="2020-10-21T04:18:53.253Z" agent="5.0 (Windows NT 10.0; Win64; x64) AppleWebKit/537.36 (KHTML, like Gecko) Code/1.50.1 Chrome/83.0.4103.122 Electron/9.2.1 Safari/537.36" etag="TybNs-LqZJvpSnvieVUo" version="13.6.5">
    <diagram id="1ASH4X1l9AGPPqr28kAP" name="Page-1">
        <mxGraphModel dx="551" dy="413" grid="0" gridSize="10" guides="1" tooltips="1" connect="1" arrows="1" fold="1" page="1" pageScale="1" pageWidth="850" pageHeight="1100" background="#ffffff" math="0" shadow="0">
            <root>
                <mxCell id="0"/>
                <mxCell id="1" parent="0"/>
                <mxCell id="4" style="edgeStyle=orthogonalEdgeStyle;rounded=0;orthogonalLoop=1;jettySize=auto;html=1;" parent="1" edge="1">
                    <mxGeometry relative="1" as="geometry">
                        <mxPoint x="140" y="270" as="sourcePoint"/>
                        <mxPoint x="340" y="150" as="targetPoint"/>
                    </mxGeometry>
                </mxCell>
                <mxCell id="5" style="vsdxID=1;fillColor=none;gradientColor=none;fillOpacity=0;strokeColor=none;spacingTop=-3;spacingBottom=-3;spacingLeft=-3;spacingRight=-3;labelBackgroundColor=none;rounded=1;html=1;whiteSpace=wrap;" parent="1" vertex="1">
                    <mxGeometry x="267" y="165" width="970" height="1397" as="geometry"/>
                </mxCell>
                <mxCell id="6" style="vsdxID=2;fillColor=#000000;gradientColor=none;fillOpacity=0;shape=stencil(fZNRcoMgEIZPw6sDu62Gx06aXiAncCKJTK1miEk0pw9xNQJFeYLdf+H7gWW4vZT5WTHgl9Y0v+qui7Zk+M0AdF0qo1s7Y7hjuD02Rp1Mc60LWp9zqwQ+RFRBNeKlBp6bw14/FMV4giL7pARV/jW314ndmKdUP6kBh8APaQ9XQ2Lhq6dlwqU7PhBI0MEkECj9Me4A3oYdvmlxFKArGHD4lyWqdO3QS5mkme9gDd/KN2lgwQcWnAeAixYxrMDYHUag54o3VZatYc8Fsw/pc7vOQisTqXtZAfwSqvMekYLI/1h879BK53+AHv45Q1+A0cuKMa/+aDsZWoeaSlcVdZ6bD1vNhqhNcfcE);strokeColor=#333333;spacingTop=-3;spacingBottom=-3;spacingLeft=-3;spacingRight=-3;labelBackgroundColor=none;rounded=1;html=1;whiteSpace=wrap;" parent="5" vertex="1">
                    <mxGeometry width="970" height="1397" as="geometry"/>
                </mxCell>
                <mxCell id="7" value="&lt;p style=&quot;align:center;margin-left:0;margin-right:0;margin-top:0px;margin-bottom:0px;text-indent:0;valign:middle;direction:ltr;&quot;&gt;&lt;font style=&quot;font-size:14px;font-family:Arial;color:#333333;direction:ltr;letter-spacing:0px;line-height:100%;opacity:1&quot;&gt;&lt;i&gt;&lt;b&gt;Feedback Loop&lt;br/&gt;&lt;/b&gt;&lt;/i&gt;&lt;/font&gt;&lt;/p&gt;" style="text;vsdxID=1;fillColor=none;gradientColor=none;fillOpacity=0;strokeColor=none;spacingTop=-3;spacingBottom=-3;spacingLeft=-3;spacingRight=-3;labelBackgroundColor=none;rounded=1;html=1;whiteSpace=wrap;verticalAlign=middle;align=center;;html=1;" parent="5" vertex="1">
                    <mxGeometry x="5.08" y="5.08" width="960.76" height="15.24" as="geometry"/>
                </mxCell>
                <mxCell id="16" style="vsdxID=9;fillColor=none;gradientColor=none;strokeColor=none;spacingTop=-3;spacingBottom=-3;spacingLeft=-3;spacingRight=-3;labelBackgroundColor=none;rounded=1;html=1;whiteSpace=wrap;" parent="1" vertex="1">
                    <mxGeometry x="387" y="218" width="115" height="106" as="geometry"/>
                </mxCell>
                <mxCell id="17" style="vsdxID=10;fillColor=#ffffff;gradientColor=none;shape=stencil(hZPbDsIgDIafhlvStc6FS+PhBXyCxaEjHmZw6vTpxRUVFlSuyk9/+qUUQdNTXR61QDi1ttnqq6naWtBMIJpDra1pXSRoLmi6bqze2OZ8qHh/LF0mQq/oij3ZMxuhtKuluWvWQFJW5HzAzn1zeVbsvAdAAvL5jaWRkkr1yoIdq7NlS5bweK0o5NjX7/AjvbK8pN5XQ0cs5e4ub7zRMKsHgEmCAVGOIFwDnrCSLw4xS0hMcQYlG5HkgLisw6JCBSuPGb5ix4w/mgN/gMKux4wvhuj58A83JTw/2uPifjJ5Zs1ux4P9HiUXDCfZSfwLaP4A);strokeColor=#333333;spacingTop=-3;spacingBottom=-3;spacingLeft=-3;spacingRight=-3;labelBackgroundColor=none;rounded=1;html=1;whiteSpace=wrap;" parent="16" vertex="1">
                    <mxGeometry width="115" height="106" as="geometry"/>
                </mxCell>
                <mxCell id="18" value="&lt;p style=&quot;align:center;margin-left:0;margin-right:0;margin-top:0px;margin-bottom:0px;text-indent:0;valign:middle;direction:ltr;&quot;&gt;&lt;font style=&quot;font-size:11px;font-family:Arial;color:#000000;direction:ltr;letter-spacing:0px;line-height:100%;opacity:1&quot;&gt;Register&lt;/font&gt;&lt;/p&gt;" style="text;vsdxID=9;fillColor=none;gradientColor=none;strokeColor=none;spacingTop=-3;spacingBottom=-3;spacingLeft=-3;spacingRight=-3;labelBackgroundColor=none;rounded=1;html=1;whiteSpace=wrap;verticalAlign=middle;align=center;;html=1;" parent="16" vertex="1">
                    <mxGeometry x="17.39" y="20.45" width="81.28" height="64.77" as="geometry"/>
                </mxCell>
                <mxCell id="19" style="vsdxID=11;fillColor=none;gradientColor=none;strokeColor=none;spacingTop=-3;spacingBottom=-3;spacingLeft=-3;spacingRight=-3;labelBackgroundColor=none;rounded=1;html=1;whiteSpace=wrap;" parent="1" vertex="1">
                    <mxGeometry x="634" y="298" width="115" height="106" as="geometry"/>
                </mxCell>
                <mxCell id="20" style="vsdxID=12;fillColor=#ffffff;gradientColor=none;shape=stencil(hZPbDsIgDIafhlvStc6FS+PhBXyCxaEjHmZw6vTpxRUVFlSuyk9/+qUUQdNTXR61QDi1ttnqq6naWtBMIJpDra1pXSRoLmi6bqze2OZ8qHh/LF0mQq/oij3ZMxuhtKuluWvWQFJW5HzAzn1zeVbsvAdAAvL5jaWRkkr1yoIdq7NlS5bweK0o5NjX7/AjvbK8pN5XQ0cs5e4ub7zRMKsHgEmCAVGOIFwDnrCSLw4xS0hMcQYlG5HkgLisw6JCBSuPGb5ix4w/mgN/gMKux4wvhuj58A83JTw/2uPifjJ5Zs1ux4P9HiUXDCfZSfwLaP4A);strokeColor=#333333;spacingTop=-3;spacingBottom=-3;spacingLeft=-3;spacingRight=-3;labelBackgroundColor=none;rounded=1;html=1;whiteSpace=wrap;" parent="19" vertex="1">
                    <mxGeometry width="115" height="106" as="geometry"/>
                </mxCell>
                <mxCell id="21" value="&lt;p style=&quot;align:center;margin-left:0;margin-right:0;margin-top:0px;margin-bottom:0px;text-indent:0;valign:middle;direction:ltr;&quot;&gt;&lt;font style=&quot;font-size:11px;font-family:Arial;color:#000000;direction:ltr;letter-spacing:0px;line-height:100%;opacity:1&quot;&gt;Log In&lt;br/&gt;&lt;/font&gt;&lt;/p&gt;" style="text;vsdxID=11;fillColor=none;gradientColor=none;strokeColor=none;spacingTop=-3;spacingBottom=-3;spacingLeft=-3;spacingRight=-3;labelBackgroundColor=none;rounded=1;html=1;whiteSpace=wrap;verticalAlign=middle;align=center;;html=1;" parent="19" vertex="1">
                    <mxGeometry x="17.39" y="20.45" width="81.28" height="64.77" as="geometry"/>
                </mxCell>
                <mxCell id="22" style="vsdxID=14;edgeStyle=none;startArrow=none;endArrow=none;startSize=5;endSize=5;strokeColor=#333333;spacingTop=-3;spacingBottom=-3;spacingLeft=-3;spacingRight=-3;verticalAlign=middle;html=1;labelBackgroundColor=none;rounded=1;" parent="1" edge="1">
                    <mxGeometry relative="1" as="geometry">
                        <mxPoint as="offset"/>
                        <Array as="points">
                            <mxPoint x="101" y="482"/>
                        </Array>
                        <mxPoint x="101" y="482" as="sourcePoint"/>
                        <mxPoint x="101" y="482" as="targetPoint"/>
                    </mxGeometry>
                </mxCell>
                <mxCell id="23" value="&lt;p style=&quot;align:center;margin-left:0;margin-right:0;margin-top:0px;margin-bottom:0px;text-indent:0;valign:middle;direction:ltr;&quot;&gt;&lt;font style=&quot;font-size:11px;font-family:Arial;color:#333333;direction:ltr;letter-spacing:0px;line-height:100%;opacity:1&quot;&gt;&amp;lt;&amp;lt;include&amp;gt;&amp;gt;&lt;/font&gt;&lt;/p&gt;" style="vsdxID=17;edgeStyle=none;dashed=1;startArrow=block;endArrow=none;startSize=5;endSize=5;strokeColor=#333333;spacingTop=-3;spacingBottom=-3;spacingLeft=-3;spacingRight=-3;verticalAlign=middle;html=1;labelBackgroundColor=#ffffff;rounded=1;align=center;" parent="1" edge="1">
                    <mxGeometry x="0.2583" relative="1" as="geometry">
                        <mxPoint as="offset"/>
                        <Array as="points">
                            <mxPoint x="691.55" y="254"/>
                        </Array>
                        <mxPoint x="851" y="254" as="sourcePoint"/>
                        <mxPoint x="692" y="298" as="targetPoint"/>
                    </mxGeometry>
                </mxCell>
                <mxCell id="24" style="vsdxID=13;edgeStyle=none;startArrow=none;endArrow=none;startSize=5;endSize=5;strokeColor=#333333;spacingTop=-3;spacingBottom=-3;spacingLeft=-3;spacingRight=-3;verticalAlign=middle;html=1;labelBackgroundColor=none;rounded=1;" parent="1" edge="1">
                    <mxGeometry relative="1" as="geometry">
                        <mxPoint as="offset"/>
                        <Array as="points">
                            <mxPoint x="1300" y="1020"/>
                        </Array>
                        <mxPoint x="1300" y="1020" as="sourcePoint"/>
                        <mxPoint x="1300" y="1020" as="targetPoint"/>
                    </mxGeometry>
                </mxCell>
                <mxCell id="25" style="vsdxID=15;fillColor=none;gradientColor=none;strokeColor=none;spacingTop=-3;spacingBottom=-3;spacingLeft=-3;spacingRight=-3;labelBackgroundColor=none;rounded=1;html=1;whiteSpace=wrap;" parent="1" vertex="1">
                    <mxGeometry x="851" y="200" width="115" height="106" as="geometry"/>
                </mxCell>
                <mxCell id="26" style="vsdxID=16;fillColor=#ffffff;gradientColor=none;shape=stencil(hZPbDsIgDIafhlvStc6FS+PhBXyCxaEjHmZw6vTpxRUVFlSuyk9/+qUUQdNTXR61QDi1ttnqq6naWtBMIJpDra1pXSRoLmi6bqze2OZ8qHh/LF0mQq/oij3ZMxuhtKuluWvWQFJW5HzAzn1zeVbsvAdAAvL5jaWRkkr1yoIdq7NlS5bweK0o5NjX7/AjvbK8pN5XQ0cs5e4ub7zRMKsHgEmCAVGOIFwDnrCSLw4xS0hMcQYlG5HkgLisw6JCBSuPGb5ix4w/mgN/gMKux4wvhuj58A83JTw/2uPifjJ5Zs1ux4P9HiUXDCfZSfwLaP4A);strokeColor=#333333;spacingTop=-3;spacingBottom=-3;spacingLeft=-3;spacingRight=-3;labelBackgroundColor=none;rounded=1;html=1;whiteSpace=wrap;" parent="25" vertex="1">
                    <mxGeometry width="115" height="106" as="geometry"/>
                </mxCell>
                <mxCell id="27" value="&lt;p style=&quot;align:center;margin-left:0;margin-right:0;margin-top:0px;margin-bottom:0px;text-indent:0;valign:middle;direction:ltr;&quot;&gt;&lt;font style=&quot;font-size:11px;font-family:Arial;color:#000000;direction:ltr;letter-spacing:0px;line-height:100%;opacity:1&quot;&gt;Retrieve Password&lt;br/&gt;&lt;/font&gt;&lt;/p&gt;" style="text;vsdxID=15;fillColor=none;gradientColor=none;strokeColor=none;spacingTop=-3;spacingBottom=-3;spacingLeft=-3;spacingRight=-3;labelBackgroundColor=none;rounded=1;html=1;whiteSpace=wrap;verticalAlign=middle;align=center;;html=1;" parent="25" vertex="1">
                    <mxGeometry x="17.39" y="20.45" width="81.28" height="64.77" as="geometry"/>
                </mxCell>
                <mxCell id="28" style="vsdxID=18;fillColor=none;gradientColor=none;strokeColor=none;spacingTop=-3;spacingBottom=-3;spacingLeft=-3;spacingRight=-3;labelBackgroundColor=none;rounded=1;html=1;whiteSpace=wrap;" parent="1" vertex="1">
                    <mxGeometry x="1010" y="931" width="115" height="106" as="geometry"/>
                </mxCell>
                <mxCell id="29" style="vsdxID=19;fillColor=#ffffff;gradientColor=none;shape=stencil(hZPbDsIgDIafhlvStc6FS+PhBXyCxaEjHmZw6vTpxRUVFlSuyk9/+qUUQdNTXR61QDi1ttnqq6naWtBMIJpDra1pXSRoLmi6bqze2OZ8qHh/LF0mQq/oij3ZMxuhtKuluWvWQFJW5HzAzn1zeVbsvAdAAvL5jaWRkkr1yoIdq7NlS5bweK0o5NjX7/AjvbK8pN5XQ0cs5e4ub7zRMKsHgEmCAVGOIFwDnrCSLw4xS0hMcQYlG5HkgLisw6JCBSuPGb5ix4w/mgN/gMKux4wvhuj58A83JTw/2uPifjJ5Zs1ux4P9HiUXDCfZSfwLaP4A);strokeColor=#333333;spacingTop=-3;spacingBottom=-3;spacingLeft=-3;spacingRight=-3;labelBackgroundColor=none;rounded=1;html=1;whiteSpace=wrap;" parent="28" vertex="1">
                    <mxGeometry width="115" height="106" as="geometry"/>
                </mxCell>
                <mxCell id="30" value="&lt;p style=&quot;align:center;margin-left:0;margin-right:0;margin-top:0px;margin-bottom:0px;text-indent:0;valign:middle;direction:ltr;&quot;&gt;&lt;font style=&quot;font-size:11px;font-family:Arial;color:#000000;direction:ltr;letter-spacing:0px;line-height:100%;opacity:1&quot;&gt;View Instructor Profile&lt;br/&gt;&lt;/font&gt;&lt;/p&gt;" style="text;vsdxID=18;fillColor=none;gradientColor=none;strokeColor=none;spacingTop=-3;spacingBottom=-3;spacingLeft=-3;spacingRight=-3;labelBackgroundColor=none;rounded=1;html=1;whiteSpace=wrap;verticalAlign=middle;align=center;;html=1;" parent="28" vertex="1">
                    <mxGeometry x="17.39" y="20.45" width="81.28" height="64.77" as="geometry"/>
                </mxCell>
                <mxCell id="31" style="vsdxID=20;fillColor=none;gradientColor=none;strokeColor=none;spacingTop=-3;spacingBottom=-3;spacingLeft=-3;spacingRight=-3;labelBackgroundColor=none;rounded=1;html=1;whiteSpace=wrap;" parent="1" vertex="1">
                    <mxGeometry x="127" y="940" width="57" height="160" as="geometry"/>
                </mxCell>
                <mxCell id="32" style="vsdxID=21;fillColor=#ffffff;gradientColor=none;shape=stencil(hVNbcsIwDDyNfz16OAn+7FB6gZ4gQ9zGU0oYE1ra09dEnsaEBPyl7GpHK0VSvD629cEpgmMfug/37Zu+VfysiPy+dcH3MVK8Ubx+64J7D91p38j3oY6ZBAPiGtHgJZugDttX/+sEA81YFUKI8rP7ulQ8C18VGozQP4JYDTwAL5K/PQUR4Khgm72kTjQaDQjZS8XPJHzJujIz8kTjKvrJ6SrJWXhjtS2ThEdJMTqGpxnTXGosJ0aXKiUnZLRdTcwt9ca3Ep6b5qy3XJWgWIfzOnhtLe8mQfBwTPDAxtKPwesCdH8L6H4DfLt1y4OK8bDmcgB+t5Mr+d/MGEzPIkJyUrz5Aw==);strokeColor=#333333;spacingTop=-3;spacingBottom=-3;spacingLeft=-3;spacingRight=-3;labelBackgroundColor=none;rounded=1;html=1;whiteSpace=wrap;" parent="31" vertex="1">
                    <mxGeometry width="57" height="160" as="geometry"/>
                </mxCell>
                <mxCell id="33" style="vsdxID=22;fillColor=#ffffff;gradientColor=none;shape=stencil(tZLBkoIwDIafptdMmgiF4466L+ATMFKlsy44FVf06UVSFGVdZw/emj/5kr+ZKJ7uimxrFeGu9tWXPbi8LhTPFJErC+td3b4UzxVPV5W3a1/ty1zibdZWEnaKzYXRl2rCzC8X7mRFQ2BtIkkI+V39XCY2kp+kkMaSPoYuCaAAnwJsXPknEGmIaQgs915G6DESpIiBg9TQtY0JPzj2UtxbwYavYBqKesVAfJuOHyPHGhGQ7iynGigZWv73Ul4B0QRM8nyL+FY7993JgNbPrfyynhHRPrqD6wK51WHu8ThbSQ6b52c=);strokeColor=#333333;spacingTop=-3;spacingBottom=-3;spacingLeft=-3;spacingRight=-3;labelBackgroundColor=none;rounded=1;html=1;whiteSpace=wrap;" parent="31" vertex="1">
                    <mxGeometry width="57" height="160" as="geometry"/>
                </mxCell>
                <mxCell id="34" style="vsdxID=23;fillColor=#ffffff;gradientColor=none;shape=stencil(fZNRcoMgEIZPwyuz7MYoj500uUBP4ERambaaIaY1PX2NqxnWEHlil/+HbxdQtDvX5ckphHMX2k/366uuVvSqEH1Tu+C7YaZor2j33gb3EdpLU3F8KgclwphxFXvMTY1QhuOb/3OcyzQUnGbfd/tzO6/nVeClK0ekTT4mDqw9XgKLjVRPodEbtNHALa/3OG9nN5MDxQY9cVjofLJcKRaMx8PLQPDlm4jWGo2ZIIY1XLvVkEtkkIQGQANKxqdVUcJDqcYlyIXpTlfgGr7wzCUVOlt0Oa5yTlltraSOW0dL1TPq6H6Slkfm6MrNI4t8BXfaqCaSCkq2KkG6/o6Hyfhd5mD5l4YU/0Pa/wM=);strokeColor=#333333;spacingTop=-3;spacingBottom=-3;spacingLeft=-3;spacingRight=-3;labelBackgroundColor=none;rounded=1;html=1;whiteSpace=wrap;" parent="31" vertex="1">
                    <mxGeometry width="57" height="160" as="geometry"/>
                </mxCell>
                <mxCell id="35" value="&lt;p style=&quot;align:center;margin-left:0;margin-right:0;margin-top:0px;margin-bottom:0px;text-indent:0;valign:middle;direction:ltr;&quot;&gt;&lt;font style=&quot;font-size:11px;font-family:Arial;color:#333333;direction:ltr;letter-spacing:0px;line-height:100%;opacity:1&quot;&gt;Student&lt;/font&gt;&lt;/p&gt;" style="text;vsdxID=20;fillColor=none;gradientColor=none;strokeColor=none;spacingTop=-3;spacingBottom=-3;spacingLeft=-3;spacingRight=-3;labelBackgroundColor=none;rounded=1;html=1;whiteSpace=wrap;verticalAlign=middle;align=center;;html=1;" parent="31" vertex="1">
                    <mxGeometry x="-50.8" y="146.03" width="160.02" height="13.97" as="geometry"/>
                </mxCell>
                <mxCell id="36" style="vsdxID=24;fillColor=none;gradientColor=none;strokeColor=none;spacingTop=-3;spacingBottom=-3;spacingLeft=-3;spacingRight=-3;labelBackgroundColor=none;rounded=1;html=1;whiteSpace=wrap;" parent="1" vertex="1">
                    <mxGeometry x="1271" y="272" width="57" height="160" as="geometry"/>
                </mxCell>
                <mxCell id="37" style="vsdxID=25;fillColor=#ffffff;gradientColor=none;shape=stencil(hVNbcsIwDDyNfz16OAn+7FB6gZ4gQ9zGU0oYE1ra09dEnsaEBPyl7GpHK0VSvD629cEpgmMfug/37Zu+VfysiPy+dcH3MVK8Ubx+64J7D91p38j3oY6ZBAPiGtHgJZugDttX/+sEA81YFUKI8rP7ulQ8C18VGozQP4JYDTwAL5K/PQUR4Khgm72kTjQaDQjZS8XPJHzJujIz8kTjKvrJ6SrJWXhjtS2ThEdJMTqGpxnTXGosJ0aXKiUnZLRdTcwt9ca3Ep6b5qy3XJWgWIfzOnhtLe8mQfBwTPDAxtKPwesCdH8L6H4DfLt1y4OK8bDmcgB+t5Mr+d/MGEzPIkJyUrz5Aw==);strokeColor=#333333;spacingTop=-3;spacingBottom=-3;spacingLeft=-3;spacingRight=-3;labelBackgroundColor=none;rounded=1;html=1;whiteSpace=wrap;" parent="36" vertex="1">
                    <mxGeometry width="57" height="160" as="geometry"/>
                </mxCell>
                <mxCell id="38" style="vsdxID=26;fillColor=#ffffff;gradientColor=none;shape=stencil(tZLBkoIwDIafptdMmgiF4466L+ATMFKlsy44FVf06UVSFGVdZw/emj/5kr+ZKJ7uimxrFeGu9tWXPbi8LhTPFJErC+td3b4UzxVPV5W3a1/ty1zibdZWEnaKzYXRl2rCzC8X7mRFQ2BtIkkI+V39XCY2kp+kkMaSPoYuCaAAnwJsXPknEGmIaQgs915G6DESpIiBg9TQtY0JPzj2UtxbwYavYBqKesVAfJuOHyPHGhGQ7iynGigZWv73Ul4B0QRM8nyL+FY7993JgNbPrfyynhHRPrqD6wK51WHu8ThbSQ6b52c=);strokeColor=#333333;spacingTop=-3;spacingBottom=-3;spacingLeft=-3;spacingRight=-3;labelBackgroundColor=none;rounded=1;html=1;whiteSpace=wrap;" parent="36" vertex="1">
                    <mxGeometry width="57" height="160" as="geometry"/>
                </mxCell>
                <mxCell id="39" style="vsdxID=27;fillColor=#ffffff;gradientColor=none;shape=stencil(fZNRcoMgEIZPwyuz7MYoj500uUBP4ERambaaIaY1PX2NqxnWEHlil/+HbxdQtDvX5ckphHMX2k/366uuVvSqEH1Tu+C7YaZor2j33gb3EdpLU3F8KgclwphxFXvMTY1QhuOb/3OcyzQUnGbfd/tzO6/nVeClK0ekTT4mDqw9XgKLjVRPodEbtNHALa/3OG9nN5MDxQY9cVjofLJcKRaMx8PLQPDlm4jWGo2ZIIY1XLvVkEtkkIQGQANKxqdVUcJDqcYlyIXpTlfgGr7wzCUVOlt0Oa5yTlltraSOW0dL1TPq6H6Slkfm6MrNI4t8BXfaqCaSCkq2KkG6/o6Hyfhd5mD5l4YU/0Pa/wM=);strokeColor=#333333;spacingTop=-3;spacingBottom=-3;spacingLeft=-3;spacingRight=-3;labelBackgroundColor=none;rounded=1;html=1;whiteSpace=wrap;" parent="36" vertex="1">
                    <mxGeometry width="57" height="160" as="geometry"/>
                </mxCell>
                <mxCell id="40" value="&lt;p style=&quot;align:center;margin-left:0;margin-right:0;margin-top:0px;margin-bottom:0px;text-indent:0;valign:middle;direction:ltr;&quot;&gt;&lt;font style=&quot;font-size:11px;font-family:Arial;color:#333333;direction:ltr;letter-spacing:0px;line-height:100%;opacity:1&quot;&gt;Instructor&lt;/font&gt;&lt;/p&gt;" style="text;vsdxID=24;fillColor=none;gradientColor=none;strokeColor=none;spacingTop=-3;spacingBottom=-3;spacingLeft=-3;spacingRight=-3;labelBackgroundColor=none;rounded=1;html=1;whiteSpace=wrap;verticalAlign=middle;align=center;;html=1;" parent="36" vertex="1">
                    <mxGeometry x="-50.8" y="146.04" width="160.02" height="13.97" as="geometry"/>
                </mxCell>
                <mxCell id="41" style="vsdxID=28;fillColor=none;gradientColor=none;strokeColor=none;spacingTop=-3;spacingBottom=-3;spacingLeft=-3;spacingRight=-3;labelBackgroundColor=none;rounded=1;html=1;whiteSpace=wrap;" parent="1" vertex="1">
                    <mxGeometry x="667" y="1181" width="115" height="106" as="geometry"/>
                </mxCell>
                <mxCell id="42" style="vsdxID=29;fillColor=#ffffff;gradientColor=none;shape=stencil(hZPbDsIgDIafhlvStc6FS+PhBXyCxaEjHmZw6vTpxRUVFlSuyk9/+qUUQdNTXR61QDi1ttnqq6naWtBMIJpDra1pXSRoLmi6bqze2OZ8qHh/LF0mQq/oij3ZMxuhtKuluWvWQFJW5HzAzn1zeVbsvAdAAvL5jaWRkkr1yoIdq7NlS5bweK0o5NjX7/AjvbK8pN5XQ0cs5e4ub7zRMKsHgEmCAVGOIFwDnrCSLw4xS0hMcQYlG5HkgLisw6JCBSuPGb5ix4w/mgN/gMKux4wvhuj58A83JTw/2uPifjJ5Zs1ux4P9HiUXDCfZSfwLaP4A);strokeColor=#333333;spacingTop=-3;spacingBottom=-3;spacingLeft=-3;spacingRight=-3;labelBackgroundColor=none;rounded=1;html=1;whiteSpace=wrap;" parent="41" vertex="1">
                    <mxGeometry width="115" height="106" as="geometry"/>
                </mxCell>
                <mxCell id="43" value="&lt;p style=&quot;align:center;margin-left:0;margin-right:0;margin-top:0px;margin-bottom:0px;text-indent:0;valign:middle;direction:ltr;&quot;&gt;&lt;font style=&quot;font-size:11px;font-family:Arial;color:#000000;direction:ltr;letter-spacing:0px;line-height:100%;opacity:1&quot;&gt;Edit User Profile&lt;br/&gt;&lt;/font&gt;&lt;/p&gt;" style="text;vsdxID=28;fillColor=none;gradientColor=none;strokeColor=none;spacingTop=-3;spacingBottom=-3;spacingLeft=-3;spacingRight=-3;labelBackgroundColor=none;rounded=1;html=1;whiteSpace=wrap;verticalAlign=middle;align=center;;html=1;" parent="41" vertex="1">
                    <mxGeometry x="17.39" y="20.45" width="81.28" height="64.77" as="geometry"/>
                </mxCell>
                <mxCell id="44" style="vsdxID=30;fillColor=none;gradientColor=none;strokeColor=none;spacingTop=-3;spacingBottom=-3;spacingLeft=-3;spacingRight=-3;labelBackgroundColor=none;rounded=1;html=1;whiteSpace=wrap;" parent="1" vertex="1">
                    <mxGeometry x="416" y="1002" width="115" height="106" as="geometry"/>
                </mxCell>
                <mxCell id="45" style="vsdxID=31;fillColor=#ffffff;gradientColor=none;shape=stencil(hZPbDsIgDIafhlvStc6FS+PhBXyCxaEjHmZw6vTpxRUVFlSuyk9/+qUUQdNTXR61QDi1ttnqq6naWtBMIJpDra1pXSRoLmi6bqze2OZ8qHh/LF0mQq/oij3ZMxuhtKuluWvWQFJW5HzAzn1zeVbsvAdAAvL5jaWRkkr1yoIdq7NlS5bweK0o5NjX7/AjvbK8pN5XQ0cs5e4ub7zRMKsHgEmCAVGOIFwDnrCSLw4xS0hMcQYlG5HkgLisw6JCBSuPGb5ix4w/mgN/gMKux4wvhuj58A83JTw/2uPifjJ5Zs1ux4P9HiUXDCfZSfwLaP4A);strokeColor=#333333;spacingTop=-3;spacingBottom=-3;spacingLeft=-3;spacingRight=-3;labelBackgroundColor=none;rounded=1;html=1;whiteSpace=wrap;" parent="44" vertex="1">
                    <mxGeometry width="115" height="106" as="geometry"/>
                </mxCell>
                <mxCell id="46" value="&lt;p style=&quot;align:center;margin-left:0;margin-right:0;margin-top:0px;margin-bottom:0px;text-indent:0;valign:middle;direction:ltr;&quot;&gt;&lt;font style=&quot;font-size:11px;font-family:Arial;color:#000000;direction:ltr;letter-spacing:0px;line-height:100%;opacity:1&quot;&gt;View Student Profile&lt;br/&gt;&lt;/font&gt;&lt;/p&gt;" style="text;vsdxID=30;fillColor=none;gradientColor=none;strokeColor=none;spacingTop=-3;spacingBottom=-3;spacingLeft=-3;spacingRight=-3;labelBackgroundColor=none;rounded=1;html=1;whiteSpace=wrap;verticalAlign=middle;align=center;;html=1;" parent="44" vertex="1">
                    <mxGeometry x="17.39" y="20.45" width="81.28" height="64.77" as="geometry"/>
                </mxCell>
                <mxCell id="47" style="vsdxID=32;fillColor=none;gradientColor=none;strokeColor=none;spacingTop=-3;spacingBottom=-3;spacingLeft=-3;spacingRight=-3;labelBackgroundColor=none;rounded=1;html=1;whiteSpace=wrap;" parent="1" vertex="1">
                    <mxGeometry x="953" y="1181" width="115" height="106" as="geometry"/>
                </mxCell>
                <mxCell id="48" style="vsdxID=33;fillColor=#ffffff;gradientColor=none;shape=stencil(hZPbDsIgDIafhlvStc6FS+PhBXyCxaEjHmZw6vTpxRUVFlSuyk9/+qUUQdNTXR61QDi1ttnqq6naWtBMIJpDra1pXSRoLmi6bqze2OZ8qHh/LF0mQq/oij3ZMxuhtKuluWvWQFJW5HzAzn1zeVbsvAdAAvL5jaWRkkr1yoIdq7NlS5bweK0o5NjX7/AjvbK8pN5XQ0cs5e4ub7zRMKsHgEmCAVGOIFwDnrCSLw4xS0hMcQYlG5HkgLisw6JCBSuPGb5ix4w/mgN/gMKux4wvhuj58A83JTw/2uPifjJ5Zs1ux4P9HiUXDCfZSfwLaP4A);strokeColor=#333333;spacingTop=-3;spacingBottom=-3;spacingLeft=-3;spacingRight=-3;labelBackgroundColor=none;rounded=1;html=1;whiteSpace=wrap;" parent="47" vertex="1">
                    <mxGeometry width="115" height="106" as="geometry"/>
                </mxCell>
                <mxCell id="49" value="&lt;p style=&quot;align:center;margin-left:0;margin-right:0;margin-top:0px;margin-bottom:0px;text-indent:0;valign:middle;direction:ltr;&quot;&gt;&lt;font style=&quot;font-size:11px;font-family:Arial;color:#000000;direction:ltr;letter-spacing:0px;line-height:100%;opacity:1&quot;&gt;View Admin Profile&lt;br/&gt;&lt;/font&gt;&lt;/p&gt;" style="text;vsdxID=32;fillColor=none;gradientColor=none;strokeColor=none;spacingTop=-3;spacingBottom=-3;spacingLeft=-3;spacingRight=-3;labelBackgroundColor=none;rounded=1;html=1;whiteSpace=wrap;verticalAlign=middle;align=center;;html=1;" parent="47" vertex="1">
                    <mxGeometry x="17.39" y="20.45" width="81.28" height="64.77" as="geometry"/>
                </mxCell>
                <mxCell id="50" style="vsdxID=34;fillColor=none;gradientColor=none;strokeColor=none;spacingTop=-3;spacingBottom=-3;spacingLeft=-3;spacingRight=-3;labelBackgroundColor=none;rounded=1;html=1;whiteSpace=wrap;" parent="1" vertex="1">
                    <mxGeometry x="1300" y="940" width="57" height="160" as="geometry"/>
                </mxCell>
                <mxCell id="51" style="vsdxID=35;fillColor=#ffffff;gradientColor=none;shape=stencil(hVNbcsIwDDyNfz16OAn+7FB6gZ4gQ9zGU0oYE1ra09dEnsaEBPyl7GpHK0VSvD629cEpgmMfug/37Zu+VfysiPy+dcH3MVK8Ubx+64J7D91p38j3oY6ZBAPiGtHgJZugDttX/+sEA81YFUKI8rP7ulQ8C18VGozQP4JYDTwAL5K/PQUR4Khgm72kTjQaDQjZS8XPJHzJujIz8kTjKvrJ6SrJWXhjtS2ThEdJMTqGpxnTXGosJ0aXKiUnZLRdTcwt9ca3Ep6b5qy3XJWgWIfzOnhtLe8mQfBwTPDAxtKPwesCdH8L6H4DfLt1y4OK8bDmcgB+t5Mr+d/MGEzPIkJyUrz5Aw==);strokeColor=#333333;spacingTop=-3;spacingBottom=-3;spacingLeft=-3;spacingRight=-3;labelBackgroundColor=none;rounded=1;html=1;whiteSpace=wrap;" parent="50" vertex="1">
                    <mxGeometry width="57" height="160" as="geometry"/>
                </mxCell>
                <mxCell id="52" style="vsdxID=36;fillColor=#ffffff;gradientColor=none;shape=stencil(tZLBkoIwDIafptdMmgiF4466L+ATMFKlsy44FVf06UVSFGVdZw/emj/5kr+ZKJ7uimxrFeGu9tWXPbi8LhTPFJErC+td3b4UzxVPV5W3a1/ty1zibdZWEnaKzYXRl2rCzC8X7mRFQ2BtIkkI+V39XCY2kp+kkMaSPoYuCaAAnwJsXPknEGmIaQgs915G6DESpIiBg9TQtY0JPzj2UtxbwYavYBqKesVAfJuOHyPHGhGQ7iynGigZWv73Ul4B0QRM8nyL+FY7993JgNbPrfyynhHRPrqD6wK51WHu8ThbSQ6b52c=);strokeColor=#333333;spacingTop=-3;spacingBottom=-3;spacingLeft=-3;spacingRight=-3;labelBackgroundColor=none;rounded=1;html=1;whiteSpace=wrap;" parent="50" vertex="1">
                    <mxGeometry width="57" height="160" as="geometry"/>
                </mxCell>
                <mxCell id="53" style="vsdxID=37;fillColor=#ffffff;gradientColor=none;shape=stencil(fZNRcoMgEIZPwyuz7MYoj500uUBP4ERambaaIaY1PX2NqxnWEHlil/+HbxdQtDvX5ckphHMX2k/366uuVvSqEH1Tu+C7YaZor2j33gb3EdpLU3F8KgclwphxFXvMTY1QhuOb/3OcyzQUnGbfd/tzO6/nVeClK0ekTT4mDqw9XgKLjVRPodEbtNHALa/3OG9nN5MDxQY9cVjofLJcKRaMx8PLQPDlm4jWGo2ZIIY1XLvVkEtkkIQGQANKxqdVUcJDqcYlyIXpTlfgGr7wzCUVOlt0Oa5yTlltraSOW0dL1TPq6H6Slkfm6MrNI4t8BXfaqCaSCkq2KkG6/o6Hyfhd5mD5l4YU/0Pa/wM=);strokeColor=#333333;spacingTop=-3;spacingBottom=-3;spacingLeft=-3;spacingRight=-3;labelBackgroundColor=none;rounded=1;html=1;whiteSpace=wrap;" parent="50" vertex="1">
                    <mxGeometry width="57" height="160" as="geometry"/>
                </mxCell>
                <mxCell id="54" value="&lt;p style=&quot;align:center;margin-left:0;margin-right:0;margin-top:0px;margin-bottom:0px;text-indent:0;valign:middle;direction:ltr;&quot;&gt;&lt;font style=&quot;font-size:11px;font-family:Arial;color:#333333;direction:ltr;letter-spacing:0px;line-height:100%;opacity:1&quot;&gt;Admin&lt;/font&gt;&lt;/p&gt;" style="text;vsdxID=34;fillColor=none;gradientColor=none;strokeColor=none;spacingTop=-3;spacingBottom=-3;spacingLeft=-3;spacingRight=-3;labelBackgroundColor=none;rounded=1;html=1;whiteSpace=wrap;verticalAlign=middle;align=center;;html=1;" parent="50" vertex="1">
                    <mxGeometry x="-50.8" y="146.03" width="160.02" height="13.97" as="geometry"/>
                </mxCell>
                <mxCell id="55" style="vsdxID=38;fillColor=none;gradientColor=none;strokeColor=none;spacingTop=-3;spacingBottom=-3;spacingLeft=-3;spacingRight=-3;labelBackgroundColor=none;rounded=1;html=1;whiteSpace=wrap;" parent="1" vertex="1">
                    <mxGeometry x="416" y="1154" width="115" height="106" as="geometry"/>
                </mxCell>
                <mxCell id="56" style="vsdxID=39;fillColor=#ffffff;gradientColor=none;shape=stencil(hZPbDsIgDIafhlvStc6FS+PhBXyCxaEjHmZw6vTpxRUVFlSuyk9/+qUUQdNTXR61QDi1ttnqq6naWtBMIJpDra1pXSRoLmi6bqze2OZ8qHh/LF0mQq/oij3ZMxuhtKuluWvWQFJW5HzAzn1zeVbsvAdAAvL5jaWRkkr1yoIdq7NlS5bweK0o5NjX7/AjvbK8pN5XQ0cs5e4ub7zRMKsHgEmCAVGOIFwDnrCSLw4xS0hMcQYlG5HkgLisw6JCBSuPGb5ix4w/mgN/gMKux4wvhuj58A83JTw/2uPifjJ5Zs1ux4P9HiUXDCfZSfwLaP4A);strokeColor=#333333;spacingTop=-3;spacingBottom=-3;spacingLeft=-3;spacingRight=-3;labelBackgroundColor=none;rounded=1;html=1;whiteSpace=wrap;" parent="55" vertex="1">
                    <mxGeometry width="115" height="106" as="geometry"/>
                </mxCell>
                <mxCell id="57" value="&lt;p style=&quot;align:center;margin-left:0;margin-right:0;margin-top:0px;margin-bottom:0px;text-indent:0;valign:middle;direction:ltr;&quot;&gt;&lt;font style=&quot;font-size:11px;font-family:Arial;color:#000000;direction:ltr;letter-spacing:0px;line-height:100%;opacity:1&quot;&gt;View Student Dashboard&lt;br/&gt;&lt;/font&gt;&lt;/p&gt;" style="text;vsdxID=38;fillColor=none;gradientColor=none;strokeColor=none;spacingTop=-3;spacingBottom=-3;spacingLeft=-3;spacingRight=-3;labelBackgroundColor=none;rounded=1;html=1;whiteSpace=wrap;verticalAlign=middle;align=center;;html=1;" parent="55" vertex="1">
                    <mxGeometry x="17.39" y="20.45" width="81.28" height="64.77" as="geometry"/>
                </mxCell>
                <mxCell id="58" style="vsdxID=40;fillColor=none;gradientColor=none;strokeColor=none;spacingTop=-3;spacingBottom=-3;spacingLeft=-3;spacingRight=-3;labelBackgroundColor=none;rounded=1;html=1;whiteSpace=wrap;" parent="1" vertex="1">
                    <mxGeometry x="1010" y="699" width="115" height="106" as="geometry"/>
                </mxCell>
                <mxCell id="59" style="vsdxID=41;fillColor=#ffffff;gradientColor=none;shape=stencil(hZPbDsIgDIafhlvStc6FS+PhBXyCxaEjHmZw6vTpxRUVFlSuyk9/+qUUQdNTXR61QDi1ttnqq6naWtBMIJpDra1pXSRoLmi6bqze2OZ8qHh/LF0mQq/oij3ZMxuhtKuluWvWQFJW5HzAzn1zeVbsvAdAAvL5jaWRkkr1yoIdq7NlS5bweK0o5NjX7/AjvbK8pN5XQ0cs5e4ub7zRMKsHgEmCAVGOIFwDnrCSLw4xS0hMcQYlG5HkgLisw6JCBSuPGb5ix4w/mgN/gMKux4wvhuj58A83JTw/2uPifjJ5Zs1ux4P9HiUXDCfZSfwLaP4A);strokeColor=#333333;spacingTop=-3;spacingBottom=-3;spacingLeft=-3;spacingRight=-3;labelBackgroundColor=none;rounded=1;html=1;whiteSpace=wrap;" parent="58" vertex="1">
                    <mxGeometry width="115" height="106" as="geometry"/>
                </mxCell>
                <mxCell id="60" value="&lt;p style=&quot;align:center;margin-left:0;margin-right:0;margin-top:0px;margin-bottom:0px;text-indent:0;valign:middle;direction:ltr;&quot;&gt;&lt;font style=&quot;font-size:11px;font-family:Arial;color:#000000;direction:ltr;letter-spacing:0px;line-height:100%;opacity:1&quot;&gt;View Instructor Dashboard&lt;br/&gt;&lt;/font&gt;&lt;/p&gt;" style="text;vsdxID=40;fillColor=none;gradientColor=none;strokeColor=none;spacingTop=-3;spacingBottom=-3;spacingLeft=-3;spacingRight=-3;labelBackgroundColor=none;rounded=1;html=1;whiteSpace=wrap;verticalAlign=middle;align=center;;html=1;" parent="58" vertex="1">
                    <mxGeometry x="17.39" y="20.45" width="81.28" height="64.77" as="geometry"/>
                </mxCell>
                <mxCell id="61" style="vsdxID=42;fillColor=none;gradientColor=none;strokeColor=none;spacingTop=-3;spacingBottom=-3;spacingLeft=-3;spacingRight=-3;labelBackgroundColor=none;rounded=1;html=1;whiteSpace=wrap;" parent="1" vertex="1">
                    <mxGeometry x="1010" y="1047" width="115" height="106" as="geometry"/>
                </mxCell>
                <mxCell id="62" style="vsdxID=43;fillColor=#ffffff;gradientColor=none;shape=stencil(hZPbDsIgDIafhlvStc6FS+PhBXyCxaEjHmZw6vTpxRUVFlSuyk9/+qUUQdNTXR61QDi1ttnqq6naWtBMIJpDra1pXSRoLmi6bqze2OZ8qHh/LF0mQq/oij3ZMxuhtKuluWvWQFJW5HzAzn1zeVbsvAdAAvL5jaWRkkr1yoIdq7NlS5bweK0o5NjX7/AjvbK8pN5XQ0cs5e4ub7zRMKsHgEmCAVGOIFwDnrCSLw4xS0hMcQYlG5HkgLisw6JCBSuPGb5ix4w/mgN/gMKux4wvhuj58A83JTw/2uPifjJ5Zs1ux4P9HiUXDCfZSfwLaP4A);strokeColor=#333333;spacingTop=-3;spacingBottom=-3;spacingLeft=-3;spacingRight=-3;labelBackgroundColor=none;rounded=1;html=1;whiteSpace=wrap;" parent="61" vertex="1">
                    <mxGeometry width="115" height="106" as="geometry"/>
                </mxCell>
                <mxCell id="63" value="&lt;p style=&quot;align:center;margin-left:0;margin-right:0;margin-top:0px;margin-bottom:0px;text-indent:0;valign:middle;direction:ltr;&quot;&gt;&lt;font style=&quot;font-size:11px;font-family:Arial;color:#000000;direction:ltr;letter-spacing:0px;line-height:100%;opacity:1&quot;&gt;View Admin Dashboard&lt;br/&gt;&lt;/font&gt;&lt;/p&gt;" style="text;vsdxID=42;fillColor=none;gradientColor=none;strokeColor=none;spacingTop=-3;spacingBottom=-3;spacingLeft=-3;spacingRight=-3;labelBackgroundColor=none;rounded=1;html=1;whiteSpace=wrap;verticalAlign=middle;align=center;;html=1;" parent="61" vertex="1">
                    <mxGeometry x="17.39" y="20.45" width="81.28" height="64.77" as="geometry"/>
                </mxCell>
                <mxCell id="64" style="vsdxID=44;fillColor=none;gradientColor=none;strokeColor=none;spacingTop=-3;spacingBottom=-3;spacingLeft=-3;spacingRight=-3;labelBackgroundColor=none;rounded=1;html=1;whiteSpace=wrap;" parent="1" vertex="1">
                    <mxGeometry x="784" y="557" width="115" height="106" as="geometry"/>
                </mxCell>
                <mxCell id="65" style="vsdxID=45;fillColor=#ffffff;gradientColor=none;shape=stencil(hZPbDsIgDIafhlvStc6FS+PhBXyCxaEjHmZw6vTpxRUVFlSuyk9/+qUUQdNTXR61QDi1ttnqq6naWtBMIJpDra1pXSRoLmi6bqze2OZ8qHh/LF0mQq/oij3ZMxuhtKuluWvWQFJW5HzAzn1zeVbsvAdAAvL5jaWRkkr1yoIdq7NlS5bweK0o5NjX7/AjvbK8pN5XQ0cs5e4ub7zRMKsHgEmCAVGOIFwDnrCSLw4xS0hMcQYlG5HkgLisw6JCBSuPGb5ix4w/mgN/gMKux4wvhuj58A83JTw/2uPifjJ5Zs1ux4P9HiUXDCfZSfwLaP4A);strokeColor=#333333;spacingTop=-3;spacingBottom=-3;spacingLeft=-3;spacingRight=-3;labelBackgroundColor=none;rounded=1;html=1;whiteSpace=wrap;" parent="64" vertex="1">
                    <mxGeometry width="115" height="106" as="geometry"/>
                </mxCell>
                <mxCell id="66" value="&lt;p style=&quot;align:center;margin-left:0;margin-right:0;margin-top:0px;margin-bottom:0px;text-indent:0;valign:middle;direction:ltr;&quot;&gt;&lt;font style=&quot;font-size:11px;font-family:Arial;color:#000000;direction:ltr;letter-spacing:0px;line-height:100%;opacity:1&quot;&gt;Add Class&lt;br/&gt;&lt;/font&gt;&lt;/p&gt;" style="text;vsdxID=44;fillColor=none;gradientColor=none;strokeColor=none;spacingTop=-3;spacingBottom=-3;spacingLeft=-3;spacingRight=-3;labelBackgroundColor=none;rounded=1;html=1;whiteSpace=wrap;verticalAlign=middle;align=center;;html=1;" parent="64" vertex="1">
                    <mxGeometry x="17.39" y="20.45" width="81.28" height="64.77" as="geometry"/>
                </mxCell>
                <mxCell id="67" style="vsdxID=54;edgeStyle=none;startArrow=none;endArrow=none;startSize=5;endSize=5;strokeColor=#333333;spacingTop=-3;spacingBottom=-3;spacingLeft=-3;spacingRight=-3;verticalAlign=middle;html=1;labelBackgroundColor=none;rounded=1;" parent="1" edge="1">
                    <mxGeometry relative="1" as="geometry">
                        <mxPoint x="14" as="offset"/>
                        <Array as="points">
                            <mxPoint x="1198.78" y="1020"/>
                            <mxPoint x="1198.78" y="1100.26"/>
                        </Array>
                        <mxPoint x="1300" y="1020" as="sourcePoint"/>
                        <mxPoint x="1127" y="1100" as="targetPoint"/>
                    </mxGeometry>
                </mxCell>
                <mxCell id="68" value="&lt;p style=&quot;align:center;margin-left:0;margin-right:0;margin-top:0px;margin-bottom:0px;text-indent:0;valign:middle;direction:ltr;&quot;&gt;&lt;font style=&quot;font-size:11px;font-family:Arial;color:#333333;direction:ltr;letter-spacing:0px;line-height:100%;opacity:1&quot;&gt;&amp;lt;&amp;lt;extend&amp;gt;&amp;gt;&lt;/font&gt;&lt;/p&gt;" style="vsdxID=77;edgeStyle=none;dashed=1;startArrow=none;endArrow=block;startSize=5;endSize=5;strokeColor=#333333;spacingTop=-3;spacingBottom=-3;spacingLeft=-3;spacingRight=-3;verticalAlign=middle;html=1;labelBackgroundColor=#ffffff;rounded=1;align=center;" parent="1" edge="1">
                    <mxGeometry x="0.4228" relative="1" as="geometry">
                        <mxPoint as="offset"/>
                        <Array as="points">
                            <mxPoint x="547.62" y="1207"/>
                            <mxPoint x="547.62" y="903.98"/>
                            <mxPoint x="1068.19" y="903.98"/>
                        </Array>
                        <mxPoint x="532" y="1207" as="sourcePoint"/>
                        <mxPoint x="1068" y="807" as="targetPoint"/>
                    </mxGeometry>
                </mxCell>
                <mxCell id="69" value="&lt;p style=&quot;align:center;margin-left:0;margin-right:0;margin-top:0px;margin-bottom:0px;text-indent:0;valign:middle;direction:ltr;&quot;&gt;&lt;font style=&quot;font-size:11px;font-family:Arial;color:#333333;direction:ltr;letter-spacing:0px;line-height:100%;opacity:1&quot;&gt;&amp;lt;&amp;lt;include&amp;gt;&amp;gt;&lt;/font&gt;&lt;/p&gt;" style="vsdxID=76;edgeStyle=none;dashed=1;startArrow=none;endArrow=block;startSize=5;endSize=5;strokeColor=#333333;spacingTop=-3;spacingBottom=-3;spacingLeft=-3;spacingRight=-3;verticalAlign=middle;html=1;labelBackgroundColor=#ffffff;rounded=1;align=center;entryX=0;entryY=0.5;entryDx=0;entryDy=0;" parent="1" edge="1" target="19">
                    <mxGeometry x="-0.3965" relative="1" as="geometry">
                        <mxPoint as="offset"/>
                        <Array as="points">
                            <mxPoint x="633.79" y="272"/>
                        </Array>
                        <mxPoint x="504" y="272" as="sourcePoint"/>
                        <mxPoint x="571" y="298" as="targetPoint"/>
                    </mxGeometry>
                </mxCell>
                <mxCell id="70" style="vsdxID=86;edgeStyle=none;startArrow=none;endArrow=none;startSize=5;endSize=5;strokeColor=#333333;spacingTop=-3;spacingBottom=-3;spacingLeft=-3;spacingRight=-3;verticalAlign=middle;html=1;labelBackgroundColor=none;rounded=1;" parent="1" edge="1">
                    <mxGeometry relative="1" as="geometry">
                        <mxPoint x="-168" y="-169" as="offset"/>
                        <Array as="points">
                            <mxPoint x="1174.27" y="342"/>
                            <mxPoint x="1174.27" y="1359.96"/>
                        </Array>
                        <mxPoint x="1300" y="342" as="sourcePoint"/>
                        <mxPoint x="713" y="1361" as="targetPoint"/>
                    </mxGeometry>
                </mxCell>
                <mxCell id="72" value="&lt;p style=&quot;align:center;margin-left:0;margin-right:0;margin-top:0px;margin-bottom:0px;text-indent:0;valign:middle;direction:ltr;&quot;&gt;&lt;font style=&quot;font-size:11px;font-family:Arial;color:#333333;direction:ltr;letter-spacing:0px;line-height:100%;opacity:1&quot;&gt;&amp;lt;&amp;lt;extend&amp;gt;&amp;gt;&lt;/font&gt;&lt;/p&gt;" style="vsdxID=91;edgeStyle=none;dashed=1;startArrow=block;endArrow=none;startSize=5;endSize=5;strokeColor=#333333;spacingTop=-3;spacingBottom=-3;spacingLeft=-3;spacingRight=-3;verticalAlign=middle;html=1;labelBackgroundColor=#ffffff;rounded=1;align=center;" parent="1" edge="1">
                    <mxGeometry x="-0.3011" relative="1" as="geometry">
                        <mxPoint x="-1" as="offset"/>
                        <Array as="points">
                            <mxPoint x="654.23" y="1463"/>
                        </Array>
                        <mxPoint x="735" y="1463" as="sourcePoint"/>
                        <mxPoint x="654" y="1415" as="targetPoint"/>
                    </mxGeometry>
                </mxCell>
                <mxCell id="73" style="vsdxID=84;edgeStyle=none;startArrow=none;endArrow=none;startSize=5;endSize=5;strokeColor=#333333;spacingTop=-3;spacingBottom=-3;spacingLeft=-3;spacingRight=-3;verticalAlign=middle;html=1;labelBackgroundColor=none;rounded=1;" parent="1" edge="1">
                    <mxGeometry relative="1" as="geometry">
                        <mxPoint x="-8" y="-8" as="offset"/>
                        <Array as="points">
                            <mxPoint x="293.35" y="1010"/>
                            <mxPoint x="293.35" y="483.97"/>
                        </Array>
                        <mxPoint x="156" y="1010" as="sourcePoint"/>
                        <mxPoint x="416" y="485" as="targetPoint"/>
                    </mxGeometry>
                </mxCell>
                <mxCell id="74" style="vsdxID=83;edgeStyle=none;startArrow=none;endArrow=none;startSize=5;endSize=5;strokeColor=#333333;spacingTop=-3;spacingBottom=-3;spacingLeft=-3;spacingRight=-3;verticalAlign=middle;html=1;labelBackgroundColor=none;rounded=1;" parent="1" edge="1">
                    <mxGeometry relative="1" as="geometry">
                        <mxPoint x="20" y="-21" as="offset"/>
                        <Array as="points">
                            <mxPoint x="355.33" y="1010"/>
                            <mxPoint x="355.33" y="1359.56"/>
                        </Array>
                        <mxPoint x="156" y="1010" as="sourcePoint"/>
                        <mxPoint x="596" y="1361" as="targetPoint"/>
                    </mxGeometry>
                </mxCell>
                <mxCell id="75" style="vsdxID=82;edgeStyle=none;startArrow=none;endArrow=none;startSize=5;endSize=5;strokeColor=#333333;spacingTop=-3;spacingBottom=-3;spacingLeft=-3;spacingRight=-3;verticalAlign=middle;html=1;labelBackgroundColor=none;rounded=1;" parent="1" edge="1">
                    <mxGeometry relative="1" as="geometry">
                        <mxPoint x="-175" y="-175" as="offset"/>
                        <Array as="points">
                            <mxPoint x="1212.22" y="1010"/>
                            <mxPoint x="1212.22" y="1359.56"/>
                        </Array>
                        <mxPoint x="1329" y="1010" as="sourcePoint"/>
                        <mxPoint x="713" y="1361" as="targetPoint"/>
                    </mxGeometry>
                </mxCell>
                <mxCell id="76" value="&lt;p style=&quot;align:center;margin-left:0;margin-right:0;margin-top:0px;margin-bottom:0px;text-indent:0;valign:middle;direction:ltr;&quot;&gt;&lt;font style=&quot;font-size:11px;font-family:Arial;color:#333333;direction:ltr;letter-spacing:0px;line-height:100%;opacity:1&quot;&gt;&amp;lt;&amp;lt;extend&amp;gt;&amp;gt;&lt;/font&gt;&lt;/p&gt;" style="vsdxID=75;edgeStyle=none;dashed=1;startArrow=none;endArrow=block;startSize=5;endSize=5;strokeColor=#333333;spacingTop=-3;spacingBottom=-3;spacingLeft=-3;spacingRight=-3;verticalAlign=middle;html=1;labelBackgroundColor=#ffffff;rounded=1;align=center;" parent="1" edge="1">
                    <mxGeometry x="0.0762" relative="1" as="geometry">
                        <mxPoint as="offset"/>
                        <Array as="points">
                            <mxPoint x="590" y="609.86"/>
                        </Array>
                        <mxPoint x="590" y="655" as="sourcePoint"/>
                        <mxPoint x="783" y="610" as="targetPoint"/>
                    </mxGeometry>
                </mxCell>
                <mxCell id="77" value="&lt;p style=&quot;align:center;margin-left:0;margin-right:0;margin-top:0px;margin-bottom:0px;text-indent:0;valign:middle;direction:ltr;&quot;&gt;&lt;font style=&quot;font-size:11px;font-family:Arial;color:#333333;direction:ltr;letter-spacing:0px;line-height:100%;opacity:1&quot;&gt;&amp;lt;&amp;lt;extend&amp;gt;&amp;gt;&lt;/font&gt;&lt;/p&gt;" style="vsdxID=74;edgeStyle=none;dashed=1;startArrow=none;endArrow=block;startSize=5;endSize=5;strokeColor=#333333;spacingTop=-3;spacingBottom=-3;spacingLeft=-3;spacingRight=-3;verticalAlign=middle;html=1;labelBackgroundColor=#ffffff;rounded=1;align=center;" parent="1" edge="1">
                    <mxGeometry x="-0.2624" relative="1" as="geometry">
                        <mxPoint as="offset"/>
                        <Array as="points">
                            <mxPoint x="1068.58" y="610"/>
                        </Array>
                        <mxPoint x="900" y="610" as="sourcePoint"/>
                        <mxPoint x="1068" y="699" as="targetPoint"/>
                    </mxGeometry>
                </mxCell>
                <mxCell id="78" value="&lt;p style=&quot;align:center;margin-left:0;margin-right:0;margin-top:0px;margin-bottom:0px;text-indent:0;valign:middle;direction:ltr;&quot;&gt;&lt;font style=&quot;font-size:11px;font-family:Arial;color:#333333;direction:ltr;letter-spacing:0px;line-height:100%;opacity:1&quot;&gt;&amp;lt;&amp;lt;extend&amp;gt;&amp;gt;&lt;/font&gt;&lt;/p&gt;" style="vsdxID=73;edgeStyle=none;dashed=1;startArrow=none;endArrow=block;startSize=5;endSize=5;strokeColor=#333333;spacingTop=-3;spacingBottom=-3;spacingLeft=-3;spacingRight=-3;verticalAlign=middle;html=1;labelBackgroundColor=#ffffff;rounded=1;align=center;" parent="1" edge="1">
                    <mxGeometry relative="1" as="geometry">
                        <mxPoint x="-2" y="128" as="offset"/>
                        <Array as="points">
                            <mxPoint x="474" y="709.07"/>
                        </Array>
                        <mxPoint x="474" y="1002" as="sourcePoint"/>
                        <mxPoint x="532" y="709" as="targetPoint"/>
                    </mxGeometry>
                </mxCell>
                <mxCell id="79" value="&lt;p style=&quot;align:center;margin-left:0;margin-right:0;margin-top:0px;margin-bottom:0px;text-indent:0;valign:middle;direction:ltr;&quot;&gt;&lt;font style=&quot;font-size:11px;font-family:Arial;color:#333333;direction:ltr;letter-spacing:0px;line-height:100%;opacity:1&quot;&gt;&amp;lt;&amp;lt;extend&amp;gt;&amp;gt;&lt;/font&gt;&lt;/p&gt;" style="vsdxID=72;edgeStyle=none;dashed=1;startArrow=none;endArrow=block;startSize=5;endSize=5;strokeColor=#333333;spacingTop=-3;spacingBottom=-3;spacingLeft=-3;spacingRight=-3;verticalAlign=middle;html=1;labelBackgroundColor=#ffffff;rounded=1;align=center;" parent="1" edge="1">
                    <mxGeometry x="-0.0559" relative="1" as="geometry">
                        <mxPoint y="1" as="offset"/>
                        <Array as="points">
                            <mxPoint x="734.81" y="709"/>
                            <mxPoint x="734.81" y="841.78"/>
                        </Array>
                        <mxPoint x="648" y="709" as="sourcePoint"/>
                        <mxPoint x="822" y="842" as="targetPoint"/>
                    </mxGeometry>
                </mxCell>
                <mxCell id="80" value="&lt;p style=&quot;align:center;margin-left:0;margin-right:0;margin-top:0px;margin-bottom:0px;text-indent:0;valign:middle;direction:ltr;&quot;&gt;&lt;font style=&quot;font-size:11px;font-family:Arial;color:#333333;direction:ltr;letter-spacing:0px;line-height:100%;opacity:1&quot;&gt;&amp;lt;&amp;lt;extend&amp;gt;&amp;gt;&lt;/font&gt;&lt;/p&gt;" style="vsdxID=71;edgeStyle=none;dashed=1;startArrow=block;endArrow=none;startSize=5;endSize=5;strokeColor=#333333;spacingTop=-3;spacingBottom=-3;spacingLeft=-3;spacingRight=-3;verticalAlign=middle;html=1;labelBackgroundColor=#ffffff;rounded=1;align=center;" parent="1" edge="1">
                    <mxGeometry relative="1" as="geometry">
                        <mxPoint x="-133" y="22" as="offset"/>
                        <Array as="points">
                            <mxPoint x="735.19" y="842"/>
                            <mxPoint x="735.19" y="841.18"/>
                        </Array>
                        <mxPoint x="822" y="842" as="sourcePoint"/>
                        <mxPoint x="648" y="841" as="targetPoint"/>
                    </mxGeometry>
                </mxCell>
                <mxCell id="81" value="&lt;p style=&quot;align:center;margin-left:0;margin-right:0;margin-top:0px;margin-bottom:0px;text-indent:0;valign:middle;direction:ltr;&quot;&gt;&lt;font style=&quot;font-size:11px;font-family:Arial;color:#333333;direction:ltr;letter-spacing:0px;line-height:100%;opacity:1&quot;&gt;&amp;lt;&amp;lt;extend&amp;gt;&amp;gt;&lt;/font&gt;&lt;/p&gt;" style="vsdxID=70;edgeStyle=none;dashed=1;startArrow=none;endArrow=block;startSize=5;endSize=5;strokeColor=#333333;spacingTop=-3;spacingBottom=-3;spacingLeft=-3;spacingRight=-3;verticalAlign=middle;html=1;labelBackgroundColor=#ffffff;rounded=1;align=center;" parent="1" edge="1">
                    <mxGeometry x="-0.0548" relative="1" as="geometry">
                        <mxPoint as="offset"/>
                        <Array as="points">
                            <mxPoint x="1068.05" y="842"/>
                        </Array>
                        <mxPoint x="938" y="842" as="sourcePoint"/>
                        <mxPoint x="1068" y="807" as="targetPoint"/>
                    </mxGeometry>
                </mxCell>
                <mxCell id="82" value="&lt;p style=&quot;align:center;margin-left:0;margin-right:0;margin-top:0px;margin-bottom:0px;text-indent:0;valign:middle;direction:ltr;&quot;&gt;&lt;font style=&quot;font-size:11px;font-family:Arial;color:#333333;direction:ltr;letter-spacing:0px;line-height:100%;opacity:1&quot;&gt;&amp;lt;&amp;lt;extend&amp;gt;&amp;gt;&lt;/font&gt;&lt;/p&gt;" style="vsdxID=69;edgeStyle=none;dashed=1;startArrow=block;endArrow=none;startSize=5;endSize=5;strokeColor=#333333;spacingTop=-3;spacingBottom=-3;spacingLeft=-3;spacingRight=-3;verticalAlign=middle;html=1;labelBackgroundColor=#ffffff;rounded=1;align=center;" parent="1" edge="1">
                    <mxGeometry x="-0.4254" relative="1" as="geometry">
                        <mxPoint as="offset"/>
                        <Array as="points">
                            <mxPoint x="974.05" y="1100"/>
                            <mxPoint x="974.05" y="841.49"/>
                        </Array>
                        <mxPoint x="1010" y="1100" as="sourcePoint"/>
                        <mxPoint x="938" y="842" as="targetPoint"/>
                    </mxGeometry>
                </mxCell>
                <mxCell id="83" value="&lt;p style=&quot;align:center;margin-left:0;margin-right:0;margin-top:0px;margin-bottom:0px;text-indent:0;valign:middle;direction:ltr;&quot;&gt;&lt;font style=&quot;font-size:11px;font-family:Arial;color:#333333;direction:ltr;letter-spacing:0px;line-height:100%;opacity:1&quot;&gt;&amp;lt;&amp;lt;extend&amp;gt;&amp;gt;&lt;/font&gt;&lt;/p&gt;" style="vsdxID=68;edgeStyle=none;dashed=1;startArrow=block;endArrow=none;startSize=5;endSize=5;strokeColor=#333333;spacingTop=-3;spacingBottom=-3;spacingLeft=-3;spacingRight=-3;verticalAlign=middle;html=1;labelBackgroundColor=#ffffff;rounded=1;align=center;" parent="1" edge="1">
                    <mxGeometry x="0.0291" relative="1" as="geometry">
                        <mxPoint as="offset"/>
                        <Array as="points">
                            <mxPoint x="599.81" y="1234"/>
                            <mxPoint x="599.81" y="1055.75"/>
                        </Array>
                        <mxPoint x="667" y="1234" as="sourcePoint"/>
                        <mxPoint x="532" y="1056" as="targetPoint"/>
                    </mxGeometry>
                </mxCell>
                <mxCell id="84" value="&lt;p style=&quot;align:center;margin-left:0;margin-right:0;margin-top:0px;margin-bottom:0px;text-indent:0;valign:middle;direction:ltr;&quot;&gt;&lt;font style=&quot;font-size:11px;font-family:Arial;color:#333333;direction:ltr;letter-spacing:0px;line-height:100%;opacity:1&quot;&gt;&amp;lt;&amp;lt;extend&amp;gt;&amp;gt;&lt;/font&gt;&lt;/p&gt;" style="vsdxID=67;edgeStyle=none;dashed=1;startArrow=block;endArrow=none;startSize=5;endSize=5;strokeColor=#333333;spacingTop=-3;spacingBottom=-3;spacingLeft=-3;spacingRight=-3;verticalAlign=middle;html=1;labelBackgroundColor=#ffffff;rounded=1;align=center;" parent="1" edge="1">
                    <mxGeometry x="-0.1888" y="-69" relative="1" as="geometry">
                        <mxPoint as="offset"/>
                        <Array as="points">
                            <mxPoint x="725" y="984.23"/>
                        </Array>
                        <mxPoint x="725" y="1180" as="sourcePoint"/>
                        <mxPoint x="1010" y="985" as="targetPoint"/>
                    </mxGeometry>
                </mxCell>
                <mxCell id="85" value="&lt;p style=&quot;align:center;margin-left:0;margin-right:0;margin-top:0px;margin-bottom:0px;text-indent:0;valign:middle;direction:ltr;&quot;&gt;&lt;font style=&quot;font-size:11px;font-family:Arial;color:#333333;direction:ltr;letter-spacing:0px;line-height:100%;opacity:1&quot;&gt;&amp;lt;&amp;lt;extend&amp;gt;&amp;gt;&lt;/font&gt;&lt;/p&gt;" style="vsdxID=66;edgeStyle=none;dashed=1;startArrow=none;endArrow=block;startSize=5;endSize=5;strokeColor=#333333;spacingTop=-3;spacingBottom=-3;spacingLeft=-3;spacingRight=-3;verticalAlign=middle;html=1;labelBackgroundColor=#ffffff;rounded=1;align=center;" parent="1" edge="1">
                    <mxGeometry x="-0.0178" relative="1" as="geometry">
                        <mxPoint as="offset"/>
                        <Array as="points"/>
                        <mxPoint x="952" y="1234" as="sourcePoint"/>
                        <mxPoint x="783" y="1234" as="targetPoint"/>
                    </mxGeometry>
                </mxCell>
                <mxCell id="86" style="vsdxID=65;edgeStyle=none;startArrow=none;endArrow=none;startSize=5;endSize=5;strokeColor=#333333;spacingTop=-3;spacingBottom=-3;spacingLeft=-3;spacingRight=-3;verticalAlign=middle;html=1;labelBackgroundColor=none;rounded=1;" parent="1" edge="1">
                    <mxGeometry relative="1" as="geometry">
                        <mxPoint as="offset"/>
                        <Array as="points">
                            <mxPoint x="1213.33" y="342"/>
                            <mxPoint x="1213.33" y="983.41"/>
                        </Array>
                        <mxPoint x="1300" y="342" as="sourcePoint"/>
                        <mxPoint x="1127" y="985" as="targetPoint"/>
                    </mxGeometry>
                </mxCell>
                <mxCell id="87" style="vsdxID=64;edgeStyle=none;startArrow=none;endArrow=none;startSize=5;endSize=5;strokeColor=#333333;spacingTop=-3;spacingBottom=-3;spacingLeft=-3;spacingRight=-3;verticalAlign=middle;html=1;labelBackgroundColor=none;rounded=1;" parent="1" edge="1">
                    <mxGeometry relative="1" as="geometry">
                        <mxPoint x="5" y="6" as="offset"/>
                        <Array as="points">
                            <mxPoint x="1193.17" y="1010"/>
                            <mxPoint x="1193.17" y="1232.58"/>
                        </Array>
                        <mxPoint x="1329" y="1010" as="sourcePoint"/>
                        <mxPoint x="1069" y="1234" as="targetPoint"/>
                    </mxGeometry>
                </mxCell>
                <mxCell id="88" style="vsdxID=63;edgeStyle=none;startArrow=none;endArrow=none;startSize=5;endSize=5;strokeColor=#333333;spacingTop=-3;spacingBottom=-3;spacingLeft=-3;spacingRight=-3;verticalAlign=middle;html=1;labelBackgroundColor=none;rounded=1;" parent="1" edge="1">
                    <mxGeometry relative="1" as="geometry">
                        <mxPoint x="-1" as="offset"/>
                        <Array as="points">
                            <mxPoint x="285.99" y="1010"/>
                            <mxPoint x="285.99" y="1054.32"/>
                        </Array>
                        <mxPoint x="156" y="1010" as="sourcePoint"/>
                        <mxPoint x="416" y="1056" as="targetPoint"/>
                    </mxGeometry>
                </mxCell>
                <mxCell id="89" style="vsdxID=62;edgeStyle=none;startArrow=none;endArrow=none;startSize=5;endSize=5;strokeColor=#333333;spacingTop=-3;spacingBottom=-3;spacingLeft=-3;spacingRight=-3;verticalAlign=middle;html=1;labelBackgroundColor=none;rounded=1;" parent="1" edge="1">
                    <mxGeometry relative="1" as="geometry">
                        <mxPoint x="72" y="72" as="offset"/>
                        <Array as="points">
                            <mxPoint x="322.37" y="1010"/>
                            <mxPoint x="322.37" y="350.23"/>
                        </Array>
                        <mxPoint x="156" y="1010" as="sourcePoint"/>
                        <mxPoint x="633" y="352" as="targetPoint"/>
                    </mxGeometry>
                </mxCell>
                <mxCell id="90" style="vsdxID=61;edgeStyle=none;startArrow=none;endArrow=none;startSize=5;endSize=5;strokeColor=#333333;spacingTop=-3;spacingBottom=-3;spacingLeft=-3;spacingRight=-3;verticalAlign=middle;html=1;labelBackgroundColor=none;rounded=1;" parent="1" edge="1">
                    <mxGeometry relative="1" as="geometry">
                        <mxPoint x="-116" y="115" as="offset"/>
                        <Array as="points">
                            <mxPoint x="1155.26" y="1010"/>
                            <mxPoint x="1155.26" y="412.65"/>
                            <mxPoint x="765.06" y="412.65"/>
                            <mxPoint x="765.06" y="350.23"/>
                        </Array>
                        <mxPoint x="1329" y="1010" as="sourcePoint"/>
                        <mxPoint x="750" y="352" as="targetPoint"/>
                    </mxGeometry>
                </mxCell>
                <mxCell id="91" style="vsdxID=60;edgeStyle=none;startArrow=none;endArrow=none;startSize=5;endSize=5;strokeColor=#333333;spacingTop=-3;spacingBottom=-3;spacingLeft=-3;spacingRight=-3;verticalAlign=middle;html=1;labelBackgroundColor=none;rounded=1;" parent="1" edge="1">
                    <mxGeometry relative="1" as="geometry">
                        <mxPoint x="14" as="offset"/>
                        <Array as="points"/>
                        <mxPoint x="1271" y="352" as="sourcePoint"/>
                        <mxPoint x="750" y="352" as="targetPoint"/>
                    </mxGeometry>
                </mxCell>
                <mxCell id="92" style="vsdxID=59;edgeStyle=none;startArrow=none;endArrow=none;startSize=5;endSize=5;strokeColor=#333333;spacingTop=-3;spacingBottom=-3;spacingLeft=-3;spacingRight=-3;verticalAlign=middle;html=1;labelBackgroundColor=none;rounded=1;" parent="1" edge="1">
                    <mxGeometry relative="1" as="geometry">
                        <mxPoint x="-1" y="-1" as="offset"/>
                        <Array as="points">
                            <mxPoint x="271.63" y="342"/>
                            <mxPoint x="271.63" y="270.43"/>
                        </Array>
                        <mxPoint x="156" y="342" as="sourcePoint"/>
                        <mxPoint x="387" y="272" as="targetPoint"/>
                    </mxGeometry>
                </mxCell>
                <mxCell id="93" style="vsdxID=53;edgeStyle=none;startArrow=none;endArrow=none;startSize=5;endSize=5;strokeColor=#333333;spacingTop=-3;spacingBottom=-3;spacingLeft=-3;spacingRight=-3;verticalAlign=middle;html=1;labelBackgroundColor=none;rounded=1;entryX=1;entryY=0.5;entryDx=0;entryDy=0;" parent="1" target="58" edge="1">
                    <mxGeometry relative="1" as="geometry">
                        <mxPoint x="72" y="101" as="offset"/>
                        <Array as="points">
                            <mxPoint x="1125" y="352"/>
                        </Array>
                        <mxPoint x="1271" y="352" as="sourcePoint"/>
                        <mxPoint x="1010" y="753" as="targetPoint"/>
                    </mxGeometry>
                </mxCell>
                <mxCell id="94" style="vsdxID=52;edgeStyle=none;startArrow=none;endArrow=none;startSize=5;endSize=5;strokeColor=#333333;spacingTop=-3;spacingBottom=-3;spacingLeft=-3;spacingRight=-3;verticalAlign=middle;html=1;labelBackgroundColor=none;rounded=1;" parent="1" edge="1">
                    <mxGeometry relative="1" as="geometry">
                        <mxPoint x="-1" y="-1" as="offset"/>
                        <Array as="points">
                            <mxPoint x="285.99" y="1010"/>
                            <mxPoint x="285.99" y="1205.83"/>
                        </Array>
                        <mxPoint x="156" y="1010" as="sourcePoint"/>
                        <mxPoint x="416" y="1207" as="targetPoint"/>
                    </mxGeometry>
                </mxCell>
                <mxCell id="95" style="vsdxID=46;fillColor=none;gradientColor=none;strokeColor=none;spacingTop=-3;spacingBottom=-3;spacingLeft=-3;spacingRight=-3;labelBackgroundColor=none;rounded=1;html=1;whiteSpace=wrap;" parent="1" vertex="1">
                    <mxGeometry x="822" y="788" width="115" height="106" as="geometry"/>
                </mxCell>
                <mxCell id="96" style="vsdxID=47;fillColor=#ffffff;gradientColor=none;shape=stencil(hZPbDsIgDIafhlvStc6FS+PhBXyCxaEjHmZw6vTpxRUVFlSuyk9/+qUUQdNTXR61QDi1ttnqq6naWtBMIJpDra1pXSRoLmi6bqze2OZ8qHh/LF0mQq/oij3ZMxuhtKuluWvWQFJW5HzAzn1zeVbsvAdAAvL5jaWRkkr1yoIdq7NlS5bweK0o5NjX7/AjvbK8pN5XQ0cs5e4ub7zRMKsHgEmCAVGOIFwDnrCSLw4xS0hMcQYlG5HkgLisw6JCBSuPGb5ix4w/mgN/gMKux4wvhuj58A83JTw/2uPifjJ5Zs1ux4P9HiUXDCfZSfwLaP4A);strokeColor=#333333;spacingTop=-3;spacingBottom=-3;spacingLeft=-3;spacingRight=-3;labelBackgroundColor=none;rounded=1;html=1;whiteSpace=wrap;" parent="95" vertex="1">
                    <mxGeometry width="115" height="106" as="geometry"/>
                </mxCell>
                <mxCell id="97" value="&lt;p style=&quot;align:center;margin-left:0;margin-right:0;margin-top:0px;margin-bottom:0px;text-indent:0;valign:middle;direction:ltr;&quot;&gt;&lt;font style=&quot;font-size:11px;font-family:Arial;color:#000000;direction:ltr;letter-spacing:0px;line-height:100%;opacity:1&quot;&gt;View Class Details&lt;br/&gt;&lt;/font&gt;&lt;/p&gt;" style="text;vsdxID=46;fillColor=none;gradientColor=none;strokeColor=none;spacingTop=-3;spacingBottom=-3;spacingLeft=-3;spacingRight=-3;labelBackgroundColor=none;rounded=1;html=1;whiteSpace=wrap;verticalAlign=middle;align=center;;html=1;" parent="95" vertex="1">
                    <mxGeometry x="17.39" y="20.45" width="81.28" height="64.77" as="geometry"/>
                </mxCell>
                <mxCell id="98" style="vsdxID=48;fillColor=none;gradientColor=none;strokeColor=none;spacingTop=-3;spacingBottom=-3;spacingLeft=-3;spacingRight=-3;labelBackgroundColor=none;rounded=1;html=1;whiteSpace=wrap;" parent="1" vertex="1">
                    <mxGeometry x="532" y="656" width="115" height="106" as="geometry"/>
                </mxCell>
                <mxCell id="99" style="vsdxID=49;fillColor=#ffffff;gradientColor=none;shape=stencil(hZPbDsIgDIafhlvStc6FS+PhBXyCxaEjHmZw6vTpxRUVFlSuyk9/+qUUQdNTXR61QDi1ttnqq6naWtBMIJpDra1pXSRoLmi6bqze2OZ8qHh/LF0mQq/oij3ZMxuhtKuluWvWQFJW5HzAzn1zeVbsvAdAAvL5jaWRkkr1yoIdq7NlS5bweK0o5NjX7/AjvbK8pN5XQ0cs5e4ub7zRMKsHgEmCAVGOIFwDnrCSLw4xS0hMcQYlG5HkgLisw6JCBSuPGb5ix4w/mgN/gMKux4wvhuj58A83JTw/2uPifjJ5Zs1ux4P9HiUXDCfZSfwLaP4A);strokeColor=#333333;spacingTop=-3;spacingBottom=-3;spacingLeft=-3;spacingRight=-3;labelBackgroundColor=none;rounded=1;html=1;whiteSpace=wrap;" parent="98" vertex="1">
                    <mxGeometry width="115" height="106" as="geometry"/>
                </mxCell>
                <mxCell id="100" value="&lt;p style=&quot;align:center;margin-left:0;margin-right:0;margin-top:0px;margin-bottom:0px;text-indent:0;valign:middle;direction:ltr;&quot;&gt;&lt;font style=&quot;font-size:11px;font-family:Arial;color:#000000;direction:ltr;letter-spacing:0px;line-height:100%;opacity:1&quot;&gt;Add Student to Class&lt;br/&gt;&lt;/font&gt;&lt;/p&gt;" style="text;vsdxID=48;fillColor=none;gradientColor=none;strokeColor=none;spacingTop=-3;spacingBottom=-3;spacingLeft=-3;spacingRight=-3;labelBackgroundColor=none;rounded=1;html=1;whiteSpace=wrap;verticalAlign=middle;align=center;;html=1;" parent="98" vertex="1">
                    <mxGeometry x="17.39" y="20.45" width="81.28" height="64.77" as="geometry"/>
                </mxCell>
                <mxCell id="101" style="vsdxID=50;fillColor=none;gradientColor=none;strokeColor=none;spacingTop=-3;spacingBottom=-3;spacingLeft=-3;spacingRight=-3;labelBackgroundColor=none;rounded=1;html=1;whiteSpace=wrap;" parent="1" vertex="1">
                    <mxGeometry x="532" y="788" width="115" height="106" as="geometry"/>
                </mxCell>
                <mxCell id="102" style="vsdxID=51;fillColor=#ffffff;gradientColor=none;shape=stencil(hZPbDsIgDIafhlvStc6FS+PhBXyCxaEjHmZw6vTpxRUVFlSuyk9/+qUUQdNTXR61QDi1ttnqq6naWtBMIJpDra1pXSRoLmi6bqze2OZ8qHh/LF0mQq/oij3ZMxuhtKuluWvWQFJW5HzAzn1zeVbsvAdAAvL5jaWRkkr1yoIdq7NlS5bweK0o5NjX7/AjvbK8pN5XQ0cs5e4ub7zRMKsHgEmCAVGOIFwDnrCSLw4xS0hMcQYlG5HkgLisw6JCBSuPGb5ix4w/mgN/gMKux4wvhuj58A83JTw/2uPifjJ5Zs1ux4P9HiUXDCfZSfwLaP4A);strokeColor=#333333;spacingTop=-3;spacingBottom=-3;spacingLeft=-3;spacingRight=-3;labelBackgroundColor=none;rounded=1;html=1;whiteSpace=wrap;" parent="101" vertex="1">
                    <mxGeometry width="115" height="106" as="geometry"/>
                </mxCell>
                <mxCell id="103" value="&lt;p style=&quot;align:center;margin-left:0;margin-right:0;margin-top:0px;margin-bottom:0px;text-indent:0;valign:middle;direction:ltr;&quot;&gt;&lt;font style=&quot;font-size:11px;font-family:Arial;color:#000000;direction:ltr;letter-spacing:0px;line-height:100%;opacity:1&quot;&gt;Start Feedback Session&lt;br/&gt;&lt;/font&gt;&lt;/p&gt;" style="text;vsdxID=50;fillColor=none;gradientColor=none;strokeColor=none;spacingTop=-3;spacingBottom=-3;spacingLeft=-3;spacingRight=-3;labelBackgroundColor=none;rounded=1;html=1;whiteSpace=wrap;verticalAlign=middle;align=center;;html=1;" parent="101" vertex="1">
                    <mxGeometry x="17.39" y="20.45" width="81.28" height="64.77" as="geometry"/>
                </mxCell>
                <mxCell id="104" style="vsdxID=55;fillColor=none;gradientColor=none;strokeColor=none;spacingTop=-3;spacingBottom=-3;spacingLeft=-3;spacingRight=-3;labelBackgroundColor=none;rounded=1;html=1;whiteSpace=wrap;" parent="1" vertex="1">
                    <mxGeometry x="127" y="272" width="57" height="160" as="geometry"/>
                </mxCell>
                <mxCell id="105" style="vsdxID=56;fillColor=#ffffff;gradientColor=none;shape=stencil(hVNbcsIwDDyNfz16OAn+7FB6gZ4gQ9zGU0oYE1ra09dEnsaEBPyl7GpHK0VSvD629cEpgmMfug/37Zu+VfysiPy+dcH3MVK8Ubx+64J7D91p38j3oY6ZBAPiGtHgJZugDttX/+sEA81YFUKI8rP7ulQ8C18VGozQP4JYDTwAL5K/PQUR4Khgm72kTjQaDQjZS8XPJHzJujIz8kTjKvrJ6SrJWXhjtS2ThEdJMTqGpxnTXGosJ0aXKiUnZLRdTcwt9ca3Ep6b5qy3XJWgWIfzOnhtLe8mQfBwTPDAxtKPwesCdH8L6H4DfLt1y4OK8bDmcgB+t5Mr+d/MGEzPIkJyUrz5Aw==);strokeColor=#333333;spacingTop=-3;spacingBottom=-3;spacingLeft=-3;spacingRight=-3;labelBackgroundColor=none;rounded=1;html=1;whiteSpace=wrap;" parent="104" vertex="1">
                    <mxGeometry width="57" height="160" as="geometry"/>
                </mxCell>
                <mxCell id="106" style="vsdxID=57;fillColor=#ffffff;gradientColor=none;shape=stencil(tZLBkoIwDIafptdMmgiF4466L+ATMFKlsy44FVf06UVSFGVdZw/emj/5kr+ZKJ7uimxrFeGu9tWXPbi8LhTPFJErC+td3b4UzxVPV5W3a1/ty1zibdZWEnaKzYXRl2rCzC8X7mRFQ2BtIkkI+V39XCY2kp+kkMaSPoYuCaAAnwJsXPknEGmIaQgs915G6DESpIiBg9TQtY0JPzj2UtxbwYavYBqKesVAfJuOHyPHGhGQ7iynGigZWv73Ul4B0QRM8nyL+FY7993JgNbPrfyynhHRPrqD6wK51WHu8ThbSQ6b52c=);strokeColor=#333333;spacingTop=-3;spacingBottom=-3;spacingLeft=-3;spacingRight=-3;labelBackgroundColor=none;rounded=1;html=1;whiteSpace=wrap;" parent="104" vertex="1">
                    <mxGeometry width="57" height="160" as="geometry"/>
                </mxCell>
                <mxCell id="107" style="vsdxID=58;fillColor=#ffffff;gradientColor=none;shape=stencil(fZNRcoMgEIZPwyuz7MYoj500uUBP4ERambaaIaY1PX2NqxnWEHlil/+HbxdQtDvX5ckphHMX2k/366uuVvSqEH1Tu+C7YaZor2j33gb3EdpLU3F8KgclwphxFXvMTY1QhuOb/3OcyzQUnGbfd/tzO6/nVeClK0ekTT4mDqw9XgKLjVRPodEbtNHALa/3OG9nN5MDxQY9cVjofLJcKRaMx8PLQPDlm4jWGo2ZIIY1XLvVkEtkkIQGQANKxqdVUcJDqcYlyIXpTlfgGr7wzCUVOlt0Oa5yTlltraSOW0dL1TPq6H6Slkfm6MrNI4t8BXfaqCaSCkq2KkG6/o6Hyfhd5mD5l4YU/0Pa/wM=);strokeColor=#333333;spacingTop=-3;spacingBottom=-3;spacingLeft=-3;spacingRight=-3;labelBackgroundColor=none;rounded=1;html=1;whiteSpace=wrap;" parent="104" vertex="1">
                    <mxGeometry width="57" height="160" as="geometry"/>
                </mxCell>
                <mxCell id="108" value="&lt;p style=&quot;align:center;margin-left:0;margin-right:0;margin-top:0px;margin-bottom:0px;text-indent:0;valign:middle;direction:ltr;&quot;&gt;&lt;font style=&quot;font-size:11px;font-family:Arial;color:#333333;direction:ltr;letter-spacing:0px;line-height:100%;opacity:1&quot;&gt;New User&lt;br/&gt;&lt;/font&gt;&lt;/p&gt;" style="text;vsdxID=55;fillColor=none;gradientColor=none;strokeColor=none;spacingTop=-3;spacingBottom=-3;spacingLeft=-3;spacingRight=-3;labelBackgroundColor=none;rounded=1;html=1;whiteSpace=wrap;verticalAlign=middle;align=center;;html=1;" parent="104" vertex="1">
                    <mxGeometry x="-50.8" y="146.04" width="160.02" height="13.97" as="geometry"/>
                </mxCell>
                <mxCell id="109" style="vsdxID=78;fillColor=none;gradientColor=none;strokeColor=none;spacingTop=-3;spacingBottom=-3;spacingLeft=-3;spacingRight=-3;labelBackgroundColor=none;rounded=1;html=1;whiteSpace=wrap;" parent="1" vertex="1">
                    <mxGeometry x="416" y="432" width="115" height="106" as="geometry"/>
                </mxCell>
                <mxCell id="110" style="vsdxID=79;fillColor=#ffffff;gradientColor=none;shape=stencil(hZPbDsIgDIafhlvStc6FS+PhBXyCxaEjHmZw6vTpxRUVFlSuyk9/+qUUQdNTXR61QDi1ttnqq6naWtBMIJpDra1pXSRoLmi6bqze2OZ8qHh/LF0mQq/oij3ZMxuhtKuluWvWQFJW5HzAzn1zeVbsvAdAAvL5jaWRkkr1yoIdq7NlS5bweK0o5NjX7/AjvbK8pN5XQ0cs5e4ub7zRMKsHgEmCAVGOIFwDnrCSLw4xS0hMcQYlG5HkgLisw6JCBSuPGb5ix4w/mgN/gMKux4wvhuj58A83JTw/2uPifjJ5Zs1ux4P9HiUXDCfZSfwLaP4A);strokeColor=#333333;spacingTop=-3;spacingBottom=-3;spacingLeft=-3;spacingRight=-3;labelBackgroundColor=none;rounded=1;html=1;whiteSpace=wrap;" parent="109" vertex="1">
                    <mxGeometry width="115" height="106" as="geometry"/>
                </mxCell>
                <mxCell id="111" value="&lt;p style=&quot;align:center;margin-left:0;margin-right:0;margin-top:0px;margin-bottom:0px;text-indent:0;valign:middle;direction:ltr;&quot;&gt;&lt;font style=&quot;font-size:11px;font-family:Arial;color:#000000;direction:ltr;letter-spacing:0px;line-height:100%;opacity:1&quot;&gt;Add Feedback to Profile&lt;br/&gt;&lt;/font&gt;&lt;/p&gt;" style="text;vsdxID=78;fillColor=none;gradientColor=none;strokeColor=none;spacingTop=-3;spacingBottom=-3;spacingLeft=-3;spacingRight=-3;labelBackgroundColor=none;rounded=1;html=1;whiteSpace=wrap;verticalAlign=middle;align=center;;html=1;" parent="109" vertex="1">
                    <mxGeometry x="17.39" y="20.45" width="81.28" height="64.77" as="geometry"/>
                </mxCell>
                <mxCell id="112" style="vsdxID=80;fillColor=none;gradientColor=none;strokeColor=none;spacingTop=-3;spacingBottom=-3;spacingLeft=-3;spacingRight=-3;labelBackgroundColor=none;rounded=1;html=1;whiteSpace=wrap;" parent="1" vertex="1">
                    <mxGeometry x="596" y="1308" width="115" height="106" as="geometry"/>
                </mxCell>
                <mxCell id="113" style="vsdxID=81;fillColor=#ffffff;gradientColor=none;shape=stencil(hZPbDsIgDIafhlvStc6FS+PhBXyCxaEjHmZw6vTpxRUVFlSuyk9/+qUUQdNTXR61QDi1ttnqq6naWtBMIJpDra1pXSRoLmi6bqze2OZ8qHh/LF0mQq/oij3ZMxuhtKuluWvWQFJW5HzAzn1zeVbsvAdAAvL5jaWRkkr1yoIdq7NlS5bweK0o5NjX7/AjvbK8pN5XQ0cs5e4ub7zRMKsHgEmCAVGOIFwDnrCSLw4xS0hMcQYlG5HkgLisw6JCBSuPGb5ix4w/mgN/gMKux4wvhuj58A83JTw/2uPifjJ5Zs1ux4P9HiUXDCfZSfwLaP4A);strokeColor=#333333;spacingTop=-3;spacingBottom=-3;spacingLeft=-3;spacingRight=-3;labelBackgroundColor=none;rounded=1;html=1;whiteSpace=wrap;" parent="112" vertex="1">
                    <mxGeometry width="115" height="106" as="geometry"/>
                </mxCell>
                <mxCell id="114" value="&lt;p style=&quot;align:center;margin-left:0;margin-right:0;margin-top:0px;margin-bottom:0px;text-indent:0;valign:middle;direction:ltr;&quot;&gt;&lt;font style=&quot;font-size:11px;font-family:Arial;color:#000000;direction:ltr;letter-spacing:0px;line-height:100%;opacity:1&quot;&gt;Search Instructors&lt;br/&gt;&lt;/font&gt;&lt;/p&gt;" style="text;vsdxID=80;fillColor=none;gradientColor=none;strokeColor=none;spacingTop=-3;spacingBottom=-3;spacingLeft=-3;spacingRight=-3;labelBackgroundColor=none;rounded=1;html=1;whiteSpace=wrap;verticalAlign=middle;align=center;;html=1;" parent="112" vertex="1">
                    <mxGeometry x="17.39" y="20.45" width="81.28" height="64.77" as="geometry"/>
                </mxCell>
                <mxCell id="115" style="vsdxID=87;fillColor=none;gradientColor=none;strokeColor=none;spacingTop=-3;spacingBottom=-3;spacingLeft=-3;spacingRight=-3;labelBackgroundColor=none;rounded=1;html=1;whiteSpace=wrap;" parent="1" vertex="1">
                    <mxGeometry x="909" y="432" width="115" height="106" as="geometry"/>
                </mxCell>
                <mxCell id="116" style="vsdxID=88;fillColor=#ffffff;gradientColor=none;shape=stencil(hZPbDsIgDIafhlvStc6FS+PhBXyCxaEjHmZw6vTpxRUVFlSuyk9/+qUUQdNTXR61QDi1ttnqq6naWtBMIJpDra1pXSRoLmi6bqze2OZ8qHh/LF0mQq/oij3ZMxuhtKuluWvWQFJW5HzAzn1zeVbsvAdAAvL5jaWRkkr1yoIdq7NlS5bweK0o5NjX7/AjvbK8pN5XQ0cs5e4ub7zRMKsHgEmCAVGOIFwDnrCSLw4xS0hMcQYlG5HkgLisw6JCBSuPGb5ix4w/mgN/gMKux4wvhuj58A83JTw/2uPifjJ5Zs1ux4P9HiUXDCfZSfwLaP4A);strokeColor=#333333;spacingTop=-3;spacingBottom=-3;spacingLeft=-3;spacingRight=-3;labelBackgroundColor=none;rounded=1;html=1;whiteSpace=wrap;" parent="115" vertex="1">
                    <mxGeometry width="115" height="106" as="geometry"/>
                </mxCell>
                <mxCell id="117" value="&lt;p style=&quot;align:center;margin-left:0;margin-right:0;margin-top:0px;margin-bottom:0px;text-indent:0;valign:middle;direction:ltr;&quot;&gt;&lt;font style=&quot;font-size:11px;font-family:Arial;color:#000000;direction:ltr;letter-spacing:0px;line-height:100%;opacity:1&quot;&gt;View Feedback&lt;br/&gt;&lt;/font&gt;&lt;/p&gt;" style="text;vsdxID=87;fillColor=none;gradientColor=none;strokeColor=none;spacingTop=-3;spacingBottom=-3;spacingLeft=-3;spacingRight=-3;labelBackgroundColor=none;rounded=1;html=1;whiteSpace=wrap;verticalAlign=middle;align=center;;html=1;" parent="115" vertex="1">
                    <mxGeometry x="17.39" y="20.45" width="81.28" height="64.77" as="geometry"/>
                </mxCell>
                <mxCell id="118" style="vsdxID=89;fillColor=none;gradientColor=none;strokeColor=none;spacingTop=-3;spacingBottom=-3;spacingLeft=-3;spacingRight=-3;labelBackgroundColor=none;rounded=1;html=1;whiteSpace=wrap;" parent="1" vertex="1">
                    <mxGeometry x="735" y="1409" width="115" height="106" as="geometry"/>
                </mxCell>
                <mxCell id="119" style="vsdxID=90;fillColor=#ffffff;gradientColor=none;shape=stencil(hZPbDsIgDIafhlvStc6FS+PhBXyCxaEjHmZw6vTpxRUVFlSuyk9/+qUUQdNTXR61QDi1ttnqq6naWtBMIJpDra1pXSRoLmi6bqze2OZ8qHh/LF0mQq/oij3ZMxuhtKuluWvWQFJW5HzAzn1zeVbsvAdAAvL5jaWRkkr1yoIdq7NlS5bweK0o5NjX7/AjvbK8pN5XQ0cs5e4ub7zRMKsHgEmCAVGOIFwDnrCSLw4xS0hMcQYlG5HkgLisw6JCBSuPGb5ix4w/mgN/gMKux4wvhuj58A83JTw/2uPifjJ5Zs1ux4P9HiUXDCfZSfwLaP4A);strokeColor=#333333;spacingTop=-3;spacingBottom=-3;spacingLeft=-3;spacingRight=-3;labelBackgroundColor=none;rounded=1;html=1;whiteSpace=wrap;" parent="118" vertex="1">
                    <mxGeometry width="115" height="106" as="geometry"/>
                </mxCell>
                <mxCell id="120" value="&lt;p style=&quot;align:center;margin-left:0;margin-right:0;margin-top:0px;margin-bottom:0px;text-indent:0;valign:middle;direction:ltr;&quot;&gt;&lt;font style=&quot;font-size:11px;font-family:Arial;color:#000000;direction:ltr;letter-spacing:0px;line-height:100%;opacity:1&quot;&gt;Sort by Ratings&lt;br/&gt;&lt;/font&gt;&lt;/p&gt;" style="text;vsdxID=89;fillColor=none;gradientColor=none;strokeColor=none;spacingTop=-3;spacingBottom=-3;spacingLeft=-3;spacingRight=-3;labelBackgroundColor=none;rounded=1;html=1;whiteSpace=wrap;verticalAlign=middle;align=center;;html=1;" parent="118" vertex="1">
                    <mxGeometry x="17.39" y="20.45" width="81.28" height="64.77" as="geometry"/>
                </mxCell>
            </root>
        </mxGraphModel>
    </diagram>
</mxfile>